<svg width="13" height="20" viewBox="0 0 13 20" fill="none" xmlns="http://www.w3.org/2000/svg">
<path d="M10.5 4C10.5 6.20914 8.70915 8 6.50001 8C4.29087 8 2.50001 6.20914 2.50001 4C2.50001 1.79086 4.29087 0 6.50001 0C8.70915 0 10.5 1.79086 10.5 4Z" fill="#3C3C3C"/>
<path d="M0.390901 7.99011C0.948647 7.37757 1.89736 7.33314 2.5099 7.89089C3.63843 8.91846 5.02338 9.5 6.50001 9.5C7.97664 9.5 9.36159 8.91846 10.4901 7.89089C11.1027 7.33314 12.0514 7.37757 12.6091 7.99011C13.1669 8.60265 13.1224 9.55136 12.5099 10.1091C11.7459 10.8047 10.8788 11.3753 9.93512 11.7843L11.1022 17.9113C11.3087 18.9955 10.4775 20 9.37377 20C8.5664 20 7.86264 19.4505 7.66683 18.6673L7.12128 16.4851C7.05001 16.2 6.79386 16 6.50001 16C6.20616 16 5.95001 16.2 5.87874 16.4851L5.3332 18.6673C5.13738 19.4505 4.43362 20 3.62626 20C2.52252 20 1.69133 18.9955 1.89786 17.9113L3.0649 11.7843C2.1212 11.3753 1.25407 10.8047 0.490121 10.1091C-0.122423 9.55136 -0.166846 8.60265 0.390901 7.99011Z" fill="#3C3C3C"/>
</svg>
