<svg width="86" height="25" viewBox="0 0 86 25" fill="none" xmlns="http://www.w3.org/2000/svg">
<path d="M11 1.248V3.96H4.016V8.256H9.368V10.92H4.016V18H0.656V1.248H11ZM16.7426 0.24V18H13.3826V0.24H16.7426ZM32.7823 4.704L24.5503 24.288H20.9743L23.8543 17.664L18.5263 4.704H22.2943L25.7263 13.992L29.2063 4.704H32.7823ZM48.9215 18H45.5615L37.9535 6.504V18H34.5935V1.224H37.9535L45.5615 12.744V1.224H48.9215V18ZM58.1459 18.216C56.8659 18.216 55.7139 17.936 54.6899 17.376C53.6659 16.8 52.8579 15.992 52.2659 14.952C51.6899 13.912 51.4019 12.712 51.4019 11.352C51.4019 9.992 51.6979 8.792 52.2899 7.752C52.8979 6.712 53.7219 5.912 54.7619 5.352C55.8019 4.776 56.9619 4.488 58.2419 4.488C59.5219 4.488 60.6819 4.776 61.7219 5.352C62.7619 5.912 63.5779 6.712 64.1699 7.752C64.7779 8.792 65.0819 9.992 65.0819 11.352C65.0819 12.712 64.7699 13.912 64.1459 14.952C63.5379 15.992 62.7059 16.8 61.6499 17.376C60.6099 17.936 59.4419 18.216 58.1459 18.216ZM58.1459 15.288C58.7539 15.288 59.3219 15.144 59.8499 14.856C60.3939 14.552 60.8259 14.104 61.1459 13.512C61.4659 12.92 61.6259 12.2 61.6259 11.352C61.6259 10.088 61.2899 9.12 60.6179 8.448C59.9619 7.76 59.1539 7.416 58.1939 7.416C57.2339 7.416 56.4259 7.76 55.7699 8.448C55.1299 9.12 54.8099 10.088 54.8099 11.352C54.8099 12.616 55.1219 13.592 55.7459 14.28C56.3859 14.952 57.1859 15.288 58.1459 15.288ZM85.9786 4.704L82.0906 18H78.4666L76.0426 8.712L73.6186 18H69.9706L66.0586 4.704H69.4666L71.8186 14.832L74.3626 4.704H77.9146L80.4106 14.808L82.7626 4.704H85.9786Z" fill="url(#paint0_linear_7870_6425)"/>
<defs>
<linearGradient id="paint0_linear_7870_6425" x1="-1" y1="10" x2="100" y2="15" gradientUnits="userSpaceOnUse">
<stop stop-color="#535F6B"/>
<stop offset="1" stop-color="#C1DEE2"/>
</linearGradient>
</defs>
</svg>
