<svg width="72" height="72" viewBox="0 0 72 72" fill="none" xmlns="http://www.w3.org/2000/svg">
<g clip-path="url(#clip0_7990_1848)">
<rect width="72" height="72" rx="18.9474" fill="url(#paint0_linear_7990_1848)"/>
<path d="M35.0324 48.9429L44.3515 58.262L48.4495 54.1629C48.6881 53.9254 48.8713 53.6382 48.9861 53.3217C49.1008 53.0052 49.1442 52.6673 49.1132 52.3321L47.6253 36.0545M29.7432 20.967L26.6079 24.2177M49.2044 46.8143L52.4562 43.5866M37.4831 25.7969L21.0901 24.3089C20.7547 24.2777 20.4165 24.3211 20.0998 24.4358C19.7831 24.5506 19.4957 24.7339 19.2581 24.9727L15.1602 29.0717L24.5232 38.4348" stroke="white" stroke-width="2.19789" stroke-linecap="round" stroke-linejoin="round"/>
<path d="M29.7448 50.1573C29.9574 50.3726 30.2106 50.5435 30.4898 50.6602C30.769 50.7769 31.0686 50.837 31.3712 50.837C31.6738 50.837 31.9734 50.7769 32.2526 50.6602C32.5318 50.5435 32.785 50.3726 32.9977 50.1573L51.1061 32.0466C54.4739 28.6756 56.3677 24.1068 56.3723 19.3417C56.3723 18.7346 56.1311 18.1523 55.7018 17.723C55.2725 17.2938 54.6903 17.0526 54.0832 17.0526C49.3173 17.0566 44.7476 18.9504 41.376 22.3187L23.2665 40.4261C23.0515 40.6387 22.8808 40.8918 22.7643 41.1708C22.6479 41.4498 22.5879 41.7491 22.5879 42.0514C22.5879 42.3538 22.6479 42.6531 22.7643 42.9321C22.8808 43.2111 23.0515 43.4642 23.2665 43.6768L29.7448 50.1573Z" stroke="white" stroke-width="2.19789" stroke-linecap="round" stroke-linejoin="round"/>
</g>
<defs>
<linearGradient id="paint0_linear_7990_1848" x1="-6.49377e-07" y1="-19.8947" x2="65.3684" y2="94.7368" gradientUnits="userSpaceOnUse">
<stop stop-color="#535F6B"/>
<stop offset="1" stop-color="#C1DEE2"/>
</linearGradient>
<clipPath id="clip0_7990_1848">
<rect width="72" height="72" fill="white"/>
</clipPath>
</defs>
</svg>
