<svg width="38" height="38" viewBox="0 0 38 38" fill="none" xmlns="http://www.w3.org/2000/svg">
<g clip-path="url(#clip0_7990_1848)">
<rect width="38" height="38" rx="10" fill="url(#paint0_linear_7990_1848)"/>
<path d="M18.4881 25.831L23.4065 30.7494L25.5694 28.586C25.6953 28.4607 25.792 28.3091 25.8526 28.142C25.9131 27.975 25.936 27.7966 25.9197 27.6197L25.1344 19.0287M15.6966 11.0659L14.0419 12.7816M25.9678 24.7075L27.684 23.0041M19.7815 13.615L11.1297 12.8297C10.9527 12.8132 10.7742 12.8361 10.6071 12.8967C10.4399 12.9572 10.2882 13.054 10.1628 13.18L8 15.3434L12.9416 20.285" stroke="white" stroke-width="1.16" stroke-linecap="round" stroke-linejoin="round"/>
<path d="M15.6972 26.4719C15.8094 26.5856 15.943 26.6758 16.0904 26.7374C16.2377 26.7989 16.3959 26.8306 16.5556 26.8306C16.7153 26.8306 16.8734 26.7989 17.0207 26.7374C17.1681 26.6758 17.3017 26.5856 17.414 26.4719L26.9712 16.9135C28.7486 15.1344 29.7481 12.723 29.7506 10.2081C29.7506 9.88772 29.6233 9.58043 29.3967 9.35386C29.1701 9.12729 28.8628 9 28.5424 9C26.0271 9.00212 23.6153 10.0016 21.8359 11.7794L12.2781 21.336C12.1646 21.4482 12.0745 21.5818 12.0131 21.7291C11.9516 21.8763 11.9199 22.0343 11.9199 22.1938C11.9199 22.3534 11.9516 22.5114 12.0131 22.6586C12.0745 22.8059 12.1646 22.9395 12.2781 23.0517L15.6972 26.4719Z" stroke="white" stroke-width="1.16" stroke-linecap="round" stroke-linejoin="round"/>
</g>
<defs>
<linearGradient id="paint0_linear_7990_1848" x1="-3.42727e-07" y1="-10.5" x2="34.5" y2="50" gradientUnits="userSpaceOnUse">
<stop stop-color="#2193FA"/>
<stop offset="1" stop-color="#C1DEE2"/>
</linearGradient>
<clipPath id="clip0_7990_1848">
<rect width="38" height="38" fill="white"/>
</clipPath>
</defs>
</svg>
