<svg width="30" height="30" viewBox="0 0 30 30" fill="none" xmlns="http://www.w3.org/2000/svg">
<path d="M15 24.75C15.625 24.75 16.156 24.531 16.593 24.093C17.031 23.656 17.25 23.125 17.25 22.5H12.75C12.75 23.125 12.969 23.656 13.407 24.093C13.844 24.531 14.375 24.75 15 24.75ZM7.5 21H22.5V18H21V14.1C21 12.575 20.6065 11.181 19.8195 9.918C19.0315 8.656 17.925 7.85 16.5 7.5V5.25H13.5V7.5C12.075 7.85 10.969 8.656 10.182 9.918C9.394 11.181 9 12.575 9 14.1V18H7.5V21ZM15 30C12.925 30 10.975 29.606 9.15 28.818C7.325 28.031 5.7375 26.9625 4.3875 25.6125C3.0375 24.2625 1.969 22.675 1.182 20.85C0.394 19.025 0 17.075 0 15C0 12.925 0.394 10.975 1.182 9.15C1.969 7.325 3.0375 5.7375 4.3875 4.3875C5.7375 3.0375 7.325 1.9685 9.15 1.1805C10.975 0.3935 12.925 0 15 0C17.075 0 19.025 0.3935 20.85 1.1805C22.675 1.9685 24.2625 3.0375 25.6125 4.3875C26.9625 5.7375 28.031 7.325 28.818 9.15C29.606 10.975 30 12.925 30 15C30 17.075 29.606 19.025 28.818 20.85C28.031 22.675 26.9625 24.2625 25.6125 25.6125C24.2625 26.9625 22.675 28.031 20.85 28.818C19.025 29.606 17.075 30 15 30Z" fill="#2193FA"/>
</svg>
